<?xml version="1.0" encoding="utf-8"?>
<!-- Generator: Adobe Illustrator 19.0.0, SVG Export Plug-In . SVG Version: 6.00 Build 0)  -->
<svg version="1.1" id="Capa_1" xmlns="http://www.w3.org/2000/svg" xmlns:xlink="http://www.w3.org/1999/xlink" x="0px" y="0px"
	 viewBox="0 0 800 800" style="enable-background:new 0 0 800 800;" xml:space="preserve">
<style type="text/css">
	.st0{fill:#E59E42;}
	.st1{fill:#7D5027;}
	.st2{opacity:0.13;}
	.st3{fill:none;stroke:#7D5027;stroke-width:51.51;stroke-miterlimit:10;}
	.st4{fill:#573011;}
	.st5{fill:none;stroke:#FFFFFF;stroke-width:7;stroke-miterlimit:10;}
</style>
<path id="XMLID_123_" class="st0" d="M757,798.3h-714c-22.7,0-41.2-18.5-41.2-41.2v-714c0-22.7,18.5-41.2,41.2-41.2h714
	c22.7,0,41.2,18.5,41.2,41.2v714C798.2,779.8,779.7,798.3,757,798.3z"/>
<polygon id="XMLID_120_" class="st1" points="526.4,1.9 273.7,1.9 279.1,151.1 286.8,362.6 513.3,362.6 "/>
<path id="XMLID_136_" class="st2" d="M801.5,713.8c-6.3-38.1,0.6-78.1-6.7-116.4c-0.5-2.6-0.2-4.7,0.5-6.5L554.7,289.2L245.6,574
	l179.5,225.1c3.7,0,7.4,0.1,11.2,0.2c14.8-3.9,31.9-3.3,45.1-2.9c16.2,0.5,32.4,1.6,48.6,2.9c4.2,0,8.5,0,12.7,0.1
	c9,0.2,18.1,0.6,27.2,1.2c34.6-6,69.9-2,104.9,0.9c0.9-0.6,1.9-1.1,3.1-1.4c13.1-4,25.8-3.8,38.5-1.8c17.1-1.6,33.9-2,50.6-1.5
	c8.4-2.9,16-7.2,22.2-13.5c6.3-6.5,9.9-14.4,12-22.9C799.7,744.9,801.1,729.3,801.5,713.8z"/>
<circle id="XMLID_118_" class="st3" cx="401.8" cy="435.8" r="183.6"/>
<circle id="XMLID_117_" class="st4" cx="401.7" cy="431.6" r="139.8"/>
<line id="XMLID_115_" class="st5" x1="313.5" y1="0" x2="313.5" y2="796"/>
<line id="XMLID_110_" class="st5" x1="398.5" y1="0" x2="398.5" y2="796"/>
<line id="XMLID_347_" class="st5" x1="483.5" y1="0" x2="483.5" y2="796"/>
</svg>
